<?xml version="1.0" encoding="utf-8"?>
<!-- Generator: Adobe Illustrator 24.0.1, SVG Export Plug-In . SVG Version: 6.00 Build 0)  -->
<svg version="1.1" id="Layer_1" xmlns="http://www.w3.org/2000/svg" xmlns:xlink="http://www.w3.org/1999/xlink" x="0px" y="0px"
	 viewBox="0 0 264.9 264.9" style="enable-background:new 0 0 264.9 264.9;" xml:space="preserve">
<style type="text/css">
	.st0{clip-path:url(#SVGID_2_);fill:#400B14;}
	.st1{clip-path:url(#SVGID_4_);fill:#60111E;}
	.st2{fill:none;stroke:#4B0D17;stroke-width:0.1206;stroke-miterlimit:10;}
	.st3{fill:#0066CC;}
	.st4{font-family:'RedHatText-Regular';}
	.st5{font-size:1.9297px;}
	.st6{clip-path:url(#SVGID_6_);fill:#7A1525;}
	.st7{clip-path:url(#SVGID_8_);fill:#931B2F;}
	.st8{clip-path:url(#SVGID_10_);fill:#B12239;}
	.st9{opacity:0.2;fill:none;stroke:#FFFFFF;stroke-width:0.1206;stroke-miterlimit:10;stroke-dasharray:0.2412,0.4824;}
	.st10{clip-path:url(#SVGID_12_);fill:#FFFFFF;}
	.st11{clip-path:url(#SVGID_14_);fill:#B12239;}
</style>
<title>bg-masthead</title>
<g>
	<g>
		<defs>
			<circle id="SVGID_1_" cx="132.4" cy="132.4" r="105.5"/>
		</defs>
		<clipPath id="SVGID_2_">
			<use xlink:href="#SVGID_1_"  style="overflow:visible;"/>
		</clipPath>
		<rect x="26.3" y="26.3" class="st0" width="212.3" height="212.3"/>
	</g>
	<g>
		<defs>
			<circle id="SVGID_3_" cx="132.4" cy="132.4" r="92.6"/>
		</defs>
		<clipPath id="SVGID_4_">
			<use xlink:href="#SVGID_3_"  style="overflow:visible;"/>
		</clipPath>
		<rect x="39.2" y="39.2" class="st1" width="186.5" height="186.5"/>
	</g>
	<circle class="st2" cx="132.4" cy="132.4" r="118.6"/>
	<circle class="st2" cx="132.4" cy="132.4" r="131.7"/>
	<text transform="matrix(1 0 0 1 124.2484 175.9884)" class="st3 st4 st5">4B0D17</text>
	<g>
		<defs>
			<circle id="SVGID_5_" cx="132.4" cy="132.4" r="79.6"/>
		</defs>
		<clipPath id="SVGID_6_">
			<use xlink:href="#SVGID_5_"  style="overflow:visible;"/>
		</clipPath>
		<rect x="52.2" y="52.2" class="st6" width="160.4" height="160.4"/>
	</g>
	<g>
		<defs>
			<circle id="SVGID_7_" cx="132.4" cy="132.4" r="66.6"/>
		</defs>
		<clipPath id="SVGID_8_">
			<use xlink:href="#SVGID_7_"  style="overflow:visible;"/>
		</clipPath>
		<rect x="65.3" y="65.3" class="st7" width="134.4" height="134.4"/>
	</g>
	<g>
		<defs>
			<circle id="SVGID_9_" cx="132.4" cy="132.4" r="53.5"/>
		</defs>
		<clipPath id="SVGID_10_">
			<use xlink:href="#SVGID_9_"  style="overflow:visible;"/>
		</clipPath>
		<rect x="78.3" y="78.3" class="st8" width="108.3" height="108.3"/>
	</g>
	<polygon class="st9" points="133.9,139.1 120.7,139.1 126.2,124.5 109.7,145.1 122.2,145 118.6,159 	"/>
	<g>
		<defs>
			<circle id="SVGID_11_" cx="130.7" cy="132.8" r="38.9"/>
		</defs>
		<clipPath id="SVGID_12_">
			<use xlink:href="#SVGID_11_"  style="overflow:visible;"/>
		</clipPath>
		<rect x="91.2" y="93.3" class="st10" width="79" height="79"/>
	</g>
	<g>
		<defs>
			<polygon id="SVGID_13_" points="153.7,127.8 129.7,127.8 139.6,100.9 109.5,138.8 132.5,138.7 125.8,164.5 			"/>
		</defs>
		<clipPath id="SVGID_14_">
			<use xlink:href="#SVGID_13_"  style="overflow:visible;"/>
		</clipPath>
		<rect x="108.9" y="100.2" class="st11" width="45.3" height="64.9"/>
	</g>
</g>
</svg>
